<?xml version="1.0" encoding="UTF-8" standalone="no"?>
<!DOCTYPE svg PUBLIC "-//W3C//DTD SVG 1.1//EN" "http://www.w3.org/Graphics/SVG/1.1/DTD/svg11.dtd">
<svg width="100%" height="100%" viewBox="0 0 344 344" version="1.1" xmlns="http://www.w3.org/2000/svg" xmlns:xlink="http://www.w3.org/1999/xlink" xml:space="preserve" xmlns:serif="http://www.serif.com/" style="fill-rule:evenodd;clip-rule:evenodd;stroke-linejoin:round;stroke-miterlimit:2;">
    <g transform="matrix(1,0,0,1,-318.18,-173.732)">
        <g transform="matrix(4.16667,0,0,4.16667,611.296,466.844)">
            <path d="M0,-58.277C-8.046,-66.326 -18.593,-70.347 -29.139,-70.347C-39.685,-70.347 -50.231,-66.326 -58.279,-58.277C-74.371,-42.185 -74.371,-16.093 -58.279,-0.001C-50.231,8.045 -39.685,12.07 -29.139,12.07C-18.593,12.07 -8.046,8.045 0,-0.001C16.092,-16.093 16.092,-42.185 0,-58.277" style="fill:rgb(30,180,15);fill-rule:nonzero;"/>
        </g>
        <g transform="matrix(4.16667,0,0,4.16667,463.382,351.143)">
            <path d="M0,4.601L-11.105,-6.504L-21.236,3.626L0,24.862L0.002,24.859L10.13,14.731L34.992,-10.13L24.862,-20.261L0,4.601Z" style="fill:white;fill-rule:nonzero;"/>
        </g>
    </g>
</svg>
