<?xml version="1.0" encoding="UTF-8" standalone="no"?>
<!DOCTYPE svg PUBLIC "-//W3C//DTD SVG 1.1//EN" "http://www.w3.org/Graphics/SVG/1.1/DTD/svg11.dtd">
<svg width="100%" height="100%" viewBox="0 0 344 344" version="1.1" xmlns="http://www.w3.org/2000/svg" xmlns:xlink="http://www.w3.org/1999/xlink" xml:space="preserve" xmlns:serif="http://www.serif.com/" style="fill-rule:evenodd;clip-rule:evenodd;stroke-linejoin:round;stroke-miterlimit:2;">
    <g transform="matrix(1,0,0,1,-865.717,-179.94)">
        <g transform="matrix(4.16667,0,0,4.16667,1139.86,249.202)">
            <path d="M0,49.171C-6.567,55.738 -15.3,59.355 -24.587,59.355C-33.874,59.355 -42.606,55.738 -49.174,49.171C-62.729,35.614 -62.729,13.556 -49.174,0C-42.606,-6.567 -33.874,-10.184 -24.587,-10.184C-15.3,-10.184 -6.567,-6.567 0,0C13.555,13.556 13.555,35.614 0,49.171M4.552,-4.553C-3.494,-12.601 -14.041,-16.623 -24.587,-16.623C-35.133,-16.623 -45.679,-12.601 -53.726,-4.553C-69.818,11.539 -69.818,37.631 -53.726,53.723C-45.679,61.769 -35.133,65.794 -24.587,65.794C-14.041,65.794 -3.494,61.769 4.552,53.723C20.644,37.631 20.644,11.539 4.552,-4.553" style="fill:rgb(179,179,179);fill-rule:nonzero;"/>
        </g>
    </g>
</svg>
