<?xml version="1.0" encoding="UTF-8" standalone="no"?><!DOCTYPE svg PUBLIC "-//W3C//DTD SVG 1.1//EN" "http://www.w3.org/Graphics/SVG/1.1/DTD/svg11.dtd"><svg width="119px" height="117px" version="1.1" xmlns="http://www.w3.org/2000/svg" xmlns:xlink="http://www.w3.org/1999/xlink" xml:space="preserve" xmlns:serif="http://www.serif.com/" style="fill-rule:evenodd;clip-rule:evenodd;stroke-linecap:round;stroke-linejoin:round;stroke-miterlimit:10;"><rect x="45.91" y="40.946" width="12.316" height="12.316" style="fill:#808080;"/><rect x="60.368" y="40.946" width="13.387" height="12.316" style="fill:#808080;"/><rect x="45.91" y="55.404" width="12.316" height="12.852" style="fill:#808080;"/><rect x="60.368" y="55.404" width="13.387" height="12.852" style="fill:#808080;"/><path d="M18.6,104.861l0,-64.793" style="fill:none;fill-rule:nonzero;stroke:#f7931e;stroke-width:4px;"/><path d="M100.529,40.068l0,64.793" style="fill:none;fill-rule:nonzero;stroke:#f7931e;stroke-width:4px;"/><path d="M100.529,40.068l16.105,0l-21.995,-14.983l0,-19.824l-9.639,0l0,13.412l-25.645,-16.673l-57.021,38.068l16.266,0" style="fill:none;fill-rule:nonzero;stroke:#f7931e;stroke-width:4px;"/><path d="M39.313,24.445l20.668,-13.073l20.296,13.696" style="fill:none;fill-rule:nonzero;stroke:#808080;stroke-width:4px;"/><path d="M2,114.5l114.058,0" style="fill:none;fill-rule:nonzero;stroke:#f7931e;stroke-width:4px;"/><path d="M31.987,104.861l54.619,0" style="fill:none;fill-rule:nonzero;stroke:#f7931e;stroke-width:4px;"/><text x="39.332px" y="97.956px" style="font-family:'DINCondensed-Bold', 'DIN Condensed';font-weight:700;font-stretch:condensed;font-size:25.703px;fill:#808080;">H124</text></svg>